<svg width="34" height="27" viewBox="0 0 34 27" fill="none" xmlns="http://www.w3.org/2000/svg">
<path d="M21.7914 8.32212C21.8492 8.22302 21.9325 8.1407 22.0329 8.08347C22.1332 8.02623 22.2471 7.99609 22.363 7.99609C22.479 7.99609 22.5928 8.02623 22.6932 8.08347C22.7936 8.1407 22.8768 8.22302 22.9347 8.32212L33.2195 26.0266C33.277 26.1255 33.3071 26.2375 33.3069 26.3515C33.3066 26.4655 33.276 26.5774 33.2181 26.6761C33.1603 26.7747 33.0771 26.8566 32.977 26.9136C32.8769 26.9706 32.7634 27.0007 32.6479 27.0008H12.0804C11.9648 27.0007 11.8513 26.9706 11.7512 26.9136C11.6512 26.8566 11.568 26.7747 11.5101 26.6761C11.4522 26.5774 11.4216 26.4655 11.4214 26.3515C11.4211 26.2375 11.4513 26.1255 11.5087 26.0266L21.7914 8.32212Z" fill="#2E8CE3"/>
<path d="M10.37 8.32212C10.4278 8.22302 10.5111 8.1407 10.6115 8.08347C10.7118 8.02623 10.8257 7.99609 10.9416 7.99609C11.0576 7.99609 11.1714 8.02623 11.2718 8.08347C11.3722 8.1407 11.4555 8.22302 11.5133 8.32212L21.7981 26.0266C21.8556 26.1255 21.8857 26.2375 21.8855 26.3515C21.8852 26.4655 21.8546 26.5774 21.7968 26.6761C21.7389 26.7747 21.6557 26.8566 21.5556 26.9136C21.4555 26.9706 21.342 27.0007 21.2265 27.0008H0.659006C0.543445 27.0007 0.429939 26.9706 0.329854 26.9136C0.229769 26.8566 0.146619 26.7747 0.0887293 26.6761C0.0308395 26.5774 0.000242244 26.4655 1.43252e-06 26.3515C-0.000239379 26.2375 0.0298847 26.1255 0.0873571 26.0266L10.37 8.32212Z" fill="#A4CFF8"/>
<path d="M16.6536 17.168L22.3644 26.9998H10.9429L16.6536 17.168Z" fill="#0C66DC"/>
<path d="M17.0336 14.2436C16.9949 14.3092 16.9394 14.3635 16.8728 14.4013C16.8061 14.4391 16.7306 14.459 16.6537 14.459C16.5768 14.459 16.5012 14.4391 16.4346 14.4013C16.3679 14.3635 16.3125 14.3092 16.2737 14.2436L12.7559 8.29588C12.7174 8.23 12.697 8.15529 12.697 8.07923C12.697 8.00317 12.7172 7.92843 12.7557 7.86252C12.7942 7.79661 12.8496 7.74185 12.9163 7.70372C12.983 7.66559 13.0587 7.64543 13.1358 7.64528L20.1715 7.64528C20.2486 7.64543 20.3243 7.66559 20.3911 7.70372C20.4578 7.74185 20.5132 7.79661 20.5517 7.86252C20.5902 7.92843 20.6104 8.00317 20.6104 8.07923C20.6103 8.15529 20.59 8.23 20.5514 8.29588L17.0336 14.2436Z" fill="#D5D5D5"/>
<path d="M16.6535 5.75388C18.2644 5.75388 19.5703 4.46583 19.5703 2.87694C19.5703 1.28805 18.2644 0 16.6535 0C15.0427 0 13.7368 1.28805 13.7368 2.87694C13.7368 4.46583 15.0427 5.75388 16.6535 5.75388Z" fill="#1555B6"/>
</svg>
